<svg width="512" height="512" viewBox="0 0 512 512" fill="none" xmlns="http://www.w3.org/2000/svg">
<g clip-path="url(#clip0_2_3)">
<path d="M0.2275 10.998V10.166C0.634833 10.166 1.02917 10.166 1.4105 10.166C1.79183 10.166 2.14717 10.166 2.4765 10.166H5.668C6.00167 10.166 6.357 10.166 6.734 10.166C7.11533 10.166 7.50967 10.166 7.917 10.166V10.998C7.50967 10.998 7.11533 10.998 6.734 10.998C6.357 10.998 6.00167 10.998 5.668 10.998H2.4765C2.14717 10.998 1.79183 10.998 1.4105 10.998C1.02917 10.998 0.634833 10.998 0.2275 10.998ZM1.5535 13C1.6445 12.558 1.73117 12.1268 1.8135 11.7065C1.89583 11.2862 1.99333 10.8008 2.106 10.2505L2.6975 7.28C2.7755 6.89867 2.84483 6.55417 2.9055 6.2465C2.9705 5.9345 3.03117 5.63333 3.0875 5.343C3.14817 5.05267 3.20883 4.7515 3.2695 4.4395H4.1405C4.07983 4.74283 4.01917 5.03967 3.9585 5.33C3.90217 5.62033 3.8415 5.92367 3.7765 6.24C3.71583 6.552 3.6465 6.90083 3.5685 7.2865L2.9705 10.2505C2.86217 10.7965 2.76683 11.2797 2.6845 11.7C2.60217 12.116 2.5155 12.5493 2.4245 13H1.5535ZM0.9555 7.3125V6.4805C1.36283 6.4805 1.75717 6.4805 2.1385 6.4805C2.51983 6.4805 2.87517 6.4805 3.2045 6.4805H6.4025C6.73617 6.4805 7.0915 6.4805 7.4685 6.4805C7.84983 6.4805 8.24417 6.4805 8.6515 6.4805V7.3125C8.24417 7.3125 7.84983 7.3125 7.4685 7.3125C7.0915 7.3125 6.73617 7.3125 6.4025 7.3125H3.2045C2.87517 7.3125 2.51983 7.3125 2.1385 7.3125C1.75717 7.3125 1.36283 7.3125 0.9555 7.3125ZM4.654 13C4.745 12.558 4.83167 12.1268 4.914 11.7065C4.99633 11.2862 5.09167 10.8008 5.2 10.2505L5.798 7.2865C5.876 6.90083 5.94533 6.55417 6.006 6.2465C6.06667 5.9345 6.12517 5.63333 6.1815 5.343C6.24217 5.05267 6.305 4.7515 6.37 4.4395H7.2345C7.17383 4.74283 7.11317 5.03967 7.0525 5.33C6.99617 5.62033 6.9355 5.92367 6.8705 6.24C6.80983 6.552 6.74267 6.90083 6.669 7.2865L6.071 10.2505C5.96267 10.7965 5.86733 11.2797 5.785 11.7C5.70267 12.116 5.61383 12.5493 5.5185 13H4.654ZM10.005 13C10.005 12.519 10.005 12.0575 10.005 11.6155C10.005 11.1735 10.005 10.686 10.005 10.153V9.503C10.005 9.11733 10.005 8.762 10.005 8.437C10.005 8.10767 10.005 7.79133 10.005 7.488C10.005 7.18033 10.005 6.86833 10.005 6.552L11.084 6.513C11.084 6.83367 11.084 7.15 11.084 7.462C11.084 7.76967 11.084 8.09033 11.084 8.424C11.084 8.75333 11.084 9.113 11.084 9.503V10.153C11.084 10.686 11.084 11.1735 11.084 11.6155C11.084 12.0575 11.084 12.519 11.084 13H10.005ZM10.525 5.0635C10.291 5.0635 10.1004 4.9985 9.95302 4.8685C9.80569 4.7385 9.73202 4.53917 9.73202 4.2705C9.73202 4.00617 9.80569 3.809 9.95302 3.679C10.1004 3.54467 10.2954 3.4775 10.538 3.4775C10.7764 3.4775 10.967 3.54683 11.11 3.6855C11.253 3.81983 11.3245 4.01483 11.3245 4.2705C11.3245 4.53917 11.253 4.7385 11.11 4.8685C10.967 4.9985 10.772 5.0635 10.525 5.0635ZM13.3309 13C13.3309 12.519 13.3309 12.0575 13.3309 11.6155C13.3309 11.1735 13.3309 10.686 13.3309 10.153V9.503C13.3309 9.02633 13.3309 8.53883 13.3309 8.0405C13.3309 7.54217 13.3309 7.046 13.3309 6.552L14.2669 6.487L14.2994 7.683H14.4164C14.5551 7.488 14.7327 7.29083 14.9494 7.0915C15.1661 6.89217 15.4217 6.7275 15.7164 6.5975C16.0111 6.46317 16.3491 6.396 16.7304 6.396C17.4151 6.396 17.9156 6.59317 18.2319 6.9875C18.5482 7.38183 18.7064 7.95383 18.7064 8.7035C18.7064 8.98517 18.7064 9.23433 18.7064 9.451C18.7064 9.66767 18.7064 9.90167 18.7064 10.153C18.7064 10.6643 18.7064 11.1475 18.7064 11.6025C18.7064 12.0532 18.7064 12.519 18.7064 13H17.6339C17.6339 12.519 17.6339 12.0553 17.6339 11.609C17.6339 11.1583 17.6339 10.6882 17.6339 10.1985V8.9765C17.6339 8.46083 17.5407 8.07083 17.3544 7.8065C17.1724 7.54217 16.8409 7.41 16.3599 7.41C16.0696 7.41 15.8052 7.4685 15.5669 7.5855C15.3286 7.7025 15.1119 7.86067 14.9169 8.06C14.7262 8.255 14.5551 8.47167 14.4034 8.71V10.1985C14.4034 10.7055 14.4034 11.18 14.4034 11.622C14.4034 12.0597 14.4034 12.519 14.4034 13H13.3309ZM23.591 13.13C22.8934 13.13 22.2997 12.9827 21.81 12.688C21.3247 12.3933 20.9542 11.9925 20.6985 11.4855C20.4429 10.9785 20.315 10.4065 20.315 9.7695C20.315 9.1325 20.4364 8.5605 20.679 8.0535C20.926 7.54217 21.2835 7.13917 21.7515 6.8445C22.2239 6.54983 22.798 6.4025 23.474 6.4025C23.7254 6.4025 23.9724 6.42417 24.215 6.4675C24.462 6.51083 24.6939 6.56933 24.9105 6.643C25.1272 6.71233 25.32 6.79467 25.489 6.89L25.3915 7.878C25.1489 7.73933 24.9192 7.63317 24.7025 7.5595C24.4902 7.4815 24.2909 7.4295 24.1045 7.4035C23.9225 7.37317 23.7535 7.358 23.5975 7.358C22.9389 7.358 22.4102 7.57467 22.0115 8.008C21.6129 8.437 21.4135 9.01767 21.4135 9.75C21.4135 10.2093 21.5002 10.6253 21.6735 10.998C21.8512 11.3663 22.1155 11.6588 22.4665 11.8755C22.8219 12.0878 23.2617 12.194 23.786 12.194C23.9724 12.194 24.1565 12.1767 24.3385 12.142C24.5249 12.1073 24.709 12.0575 24.891 11.9925C25.073 11.9232 25.2485 11.8343 25.4175 11.726L25.5085 12.7075C25.3655 12.7855 25.1987 12.857 25.008 12.922C24.8174 12.9827 24.6029 13.0325 24.3645 13.0715C24.1305 13.1105 23.8727 13.13 23.591 13.13ZM27.2069 13C27.2069 12.519 27.2069 12.0575 27.2069 11.6155C27.2069 11.1735 27.2069 10.686 27.2069 10.153V6.5845C27.2069 6.0385 27.2069 5.50767 27.2069 4.992C27.2069 4.47633 27.2069 3.97367 27.2069 3.484L28.2794 3.354C28.2794 3.87833 28.2794 4.40483 28.2794 4.9335C28.2794 5.45783 28.2794 6.00817 28.2794 6.5845V10.153C28.2794 10.686 28.2794 11.1735 28.2794 11.6155C28.2794 12.0575 28.2794 12.519 28.2794 13H27.2069ZM32.3211 13.143C31.6365 13.143 31.136 12.9458 30.8196 12.5515C30.5033 12.1572 30.3451 11.5852 30.3451 10.8355C30.3451 10.5495 30.3451 10.3025 30.3451 10.0945C30.3451 9.88217 30.3451 9.67417 30.3451 9.4705C30.3451 9.08483 30.3451 8.73167 30.3451 8.411C30.3451 8.086 30.3451 7.774 30.3451 7.475C30.3451 7.176 30.3451 6.86833 30.3451 6.552L31.4176 6.5065C31.4176 6.98317 31.4176 7.45117 31.4176 7.9105C31.4176 8.36983 31.4176 8.853 31.4176 9.36V10.582C31.4176 11.0933 31.5108 11.4833 31.6971 11.752C31.8835 12.0163 32.215 12.1485 32.6916 12.1485C32.969 12.1485 33.2225 12.09 33.4521 11.973C33.6818 11.8517 33.892 11.6935 34.0826 11.4985C34.2733 11.3035 34.4466 11.0868 34.6026 10.8485V9.36C34.6026 8.853 34.6026 8.37633 34.6026 7.93C34.6026 7.48367 34.6026 7.02433 34.6026 6.552H35.6751C35.6751 7.02433 35.6751 7.488 35.6751 7.943C35.6751 8.398 35.6751 8.90717 35.6751 9.4705V10.153C35.6751 10.686 35.6751 11.1735 35.6751 11.6155C35.6751 12.0575 35.6751 12.519 35.6751 13H34.7391L34.7001 11.8625H34.5831C34.4488 12.0575 34.2733 12.2547 34.0566 12.454C33.8443 12.649 33.593 12.8137 33.3026 12.948C33.0123 13.078 32.6851 13.143 32.3211 13.143ZM40.0639 13.143C39.4485 13.143 38.9372 12.987 38.5299 12.675C38.1225 12.3587 37.817 11.9448 37.6134 11.4335C37.4097 10.9178 37.3079 10.3588 37.3079 9.7565C37.3079 9.11517 37.4162 8.541 37.6329 8.034C37.8495 7.527 38.1637 7.12833 38.5754 6.838C38.9914 6.54333 39.494 6.396 40.0834 6.396C40.3824 6.396 40.6554 6.43717 40.9024 6.5195C41.1537 6.5975 41.3747 6.70367 41.5654 6.838C41.756 6.968 41.9142 7.11317 42.0399 7.2735H42.1504V6.5845C42.1504 6.0385 42.1504 5.50983 42.1504 4.9985C42.1504 4.48283 42.1504 3.978 42.1504 3.484L43.2229 3.354C43.2229 3.87833 43.2229 4.40483 43.2229 4.9335C43.2229 5.45783 43.2229 6.00817 43.2229 6.5845V10.153C43.2229 10.686 43.2229 11.1735 43.2229 11.6155C43.2229 12.0575 43.2229 12.519 43.2229 13H42.2869L42.2349 12.116H42.1309C41.9619 12.337 41.7734 12.5233 41.5654 12.675C41.3574 12.8267 41.1277 12.9415 40.8764 13.0195C40.6294 13.1018 40.3585 13.143 40.0639 13.143ZM40.3889 12.181C40.6575 12.181 40.9002 12.1398 41.1169 12.0575C41.3335 11.9708 41.5264 11.8495 41.6954 11.6935C41.8687 11.5375 42.0204 11.349 42.1504 11.128V8.2615C42.016 8.0665 41.8557 7.904 41.6694 7.774C41.4874 7.63967 41.288 7.54 41.0714 7.475C40.8547 7.40567 40.6337 7.371 40.4084 7.371C39.9534 7.371 39.5785 7.47933 39.2839 7.696C38.9892 7.91267 38.7682 8.203 38.6209 8.567C38.4779 8.92667 38.4064 9.32533 38.4064 9.763C38.4064 10.1833 38.4757 10.5777 38.6144 10.946C38.753 11.31 38.9675 11.6068 39.2579 11.8365C39.5482 12.0662 39.9252 12.181 40.3889 12.181ZM48.1843 13.143C47.413 13.143 46.7781 12.9957 46.2798 12.701C45.7815 12.4063 45.411 12.0033 45.1683 11.492C44.9256 10.9807 44.8043 10.3957 44.8043 9.737C44.8043 9.087 44.9235 8.51067 45.1618 8.008C45.4001 7.50533 45.7425 7.11317 46.1888 6.8315C46.6351 6.5455 47.1681 6.4025 47.7878 6.4025C48.3338 6.4025 48.8018 6.50867 49.1918 6.721C49.5861 6.93333 49.8895 7.24533 50.1018 7.657C50.3141 8.06433 50.4203 8.56917 50.4203 9.1715C50.4203 9.33183 50.416 9.477 50.4073 9.607C50.403 9.73267 50.39 9.8605 50.3683 9.9905L49.4258 9.516C49.4345 9.44667 49.4388 9.38167 49.4388 9.321C49.4431 9.256 49.4453 9.19317 49.4453 9.1325C49.4453 8.5215 49.2936 8.05783 48.9903 7.7415C48.687 7.42083 48.2905 7.2605 47.8008 7.2605C47.4065 7.2605 47.0663 7.36233 46.7803 7.566C46.4986 7.76533 46.2798 8.04267 46.1238 8.398C45.9678 8.75333 45.8898 9.1585 45.8898 9.6135V9.763C45.8898 10.2657 45.9765 10.699 46.1498 11.063C46.3231 11.427 46.5853 11.7087 46.9363 11.908C47.2916 12.103 47.7423 12.2005 48.2883 12.2005C48.492 12.2005 48.7065 12.1853 48.9318 12.155C49.1615 12.1203 49.3868 12.0683 49.6078 11.999C49.8331 11.9297 50.0476 11.8387 50.2513 11.726L50.2968 12.6945C50.1321 12.7855 49.9415 12.8657 49.7248 12.935C49.5081 13 49.2698 13.0498 49.0098 13.0845C48.7498 13.1235 48.4746 13.143 48.1843 13.143ZM45.2528 9.9905V9.2235L49.7118 9.1845L50.3683 9.4315V9.9905H45.2528ZM60.0825 12.051C59.6795 11.882 59.2852 11.7173 58.8995 11.557C58.5182 11.3967 58.1564 11.245 57.814 11.102L56.54 10.556C56.2107 10.4173 55.8554 10.2678 55.474 10.1075C55.0927 9.94717 54.7027 9.7825 54.304 9.6135V8.6385C54.707 8.46517 55.0992 8.29833 55.4805 8.138C55.8619 7.97767 56.2172 7.82817 56.5465 7.6895L57.8205 7.15C58.1585 7.007 58.5182 6.85533 58.8995 6.695C59.2852 6.53467 59.6795 6.36783 60.0825 6.1945V7.2215C59.6189 7.4165 59.1487 7.61583 58.672 7.8195C58.1997 8.02317 57.7252 8.22467 57.2485 8.424L55.747 9.0675V9.1845L57.2485 9.8215C57.7209 10.0208 58.1954 10.2223 58.672 10.426C59.153 10.6297 59.6232 10.8312 60.0825 11.0305V12.051ZM64.7802 13.143C64.3946 13.143 64.0046 13.1062 63.6102 13.0325C63.2202 12.9632 62.8584 12.8765 62.5247 12.7725C62.1954 12.6642 61.9289 12.5558 61.7252 12.4475L61.8357 11.336C62.1261 11.4963 62.4272 11.6372 62.7392 11.7585C63.0556 11.8755 63.3762 11.9665 63.7012 12.0315C64.0306 12.0965 64.3664 12.129 64.7087 12.129C65.0944 12.129 65.4411 12.077 65.7487 11.973C66.0607 11.8647 66.3056 11.6957 66.4832 11.466C66.6652 11.232 66.7562 10.9265 66.7562 10.5495C66.7562 10.2202 66.6631 9.94933 66.4767 9.737C66.2904 9.52033 66.0196 9.334 65.6642 9.178C65.3132 9.022 64.8864 8.866 64.3837 8.71C63.7944 8.52367 63.2917 8.32217 62.8757 8.1055C62.4597 7.88883 62.1412 7.62233 61.9202 7.306C61.7036 6.98533 61.5952 6.578 61.5952 6.084C61.5952 5.603 61.7079 5.17183 61.9332 4.7905C62.1629 4.40917 62.5031 4.11017 62.9537 3.8935C63.4044 3.6725 63.9634 3.562 64.6307 3.562C64.9081 3.562 65.1811 3.5815 65.4497 3.6205C65.7227 3.6595 65.9827 3.71367 66.2297 3.783C66.4767 3.848 66.7021 3.92167 66.9057 4.004C67.1094 4.08633 67.2827 4.17083 67.4257 4.2575L67.3087 5.3755C67.0444 5.19783 66.7649 5.0505 66.4702 4.9335C66.1756 4.81217 65.8831 4.72333 65.5927 4.667C65.3024 4.60633 65.0337 4.576 64.7867 4.576C64.4357 4.576 64.1129 4.628 63.8182 4.732C63.5236 4.836 63.2852 4.99633 63.1032 5.213C62.9256 5.42533 62.8367 5.7005 62.8367 6.0385C62.8367 6.33317 62.9126 6.578 63.0642 6.773C63.2159 6.968 63.4542 7.1435 63.7792 7.2995C64.1086 7.45117 64.5311 7.60933 65.0467 7.774C65.7921 8.008 66.3771 8.24633 66.8017 8.489C67.2307 8.72733 67.5341 9.00467 67.7117 9.321C67.8937 9.63733 67.9847 10.0252 67.9847 10.4845C67.9847 10.9915 67.8721 11.4443 67.6467 11.843C67.4257 12.2417 67.0791 12.558 66.6067 12.792C66.1344 13.026 65.5256 13.143 64.7802 13.143ZM72.5466 13.143C71.7753 13.143 71.1404 12.9957 70.6421 12.701C70.1438 12.4063 69.7733 12.0033 69.5306 11.492C69.2879 10.9807 69.1666 10.3957 69.1666 9.737C69.1666 9.087 69.2858 8.51067 69.5241 8.008C69.7624 7.50533 70.1048 7.11317 70.5511 6.8315C70.9974 6.5455 71.5304 6.4025 72.1501 6.4025C72.6961 6.4025 73.1641 6.50867 73.5541 6.721C73.9484 6.93333 74.2518 7.24533 74.4641 7.657C74.6764 8.06433 74.7826 8.56917 74.7826 9.1715C74.7826 9.33183 74.7783 9.477 74.7696 9.607C74.7653 9.73267 74.7523 9.8605 74.7306 9.9905L73.7881 9.516C73.7968 9.44667 73.8011 9.38167 73.8011 9.321C73.8054 9.256 73.8076 9.19317 73.8076 9.1325C73.8076 8.5215 73.6559 8.05783 73.3526 7.7415C73.0493 7.42083 72.6528 7.2605 72.1631 7.2605C71.7688 7.2605 71.4286 7.36233 71.1426 7.566C70.8609 7.76533 70.6421 8.04267 70.4861 8.398C70.3301 8.75333 70.2521 9.1585 70.2521 9.6135V9.763C70.2521 10.2657 70.3388 10.699 70.5121 11.063C70.6854 11.427 70.9476 11.7087 71.2986 11.908C71.6539 12.103 72.1046 12.2005 72.6506 12.2005C72.8543 12.2005 73.0688 12.1853 73.2941 12.155C73.5238 12.1203 73.7491 12.0683 73.9701 11.999C74.1954 11.9297 74.4099 11.8387 74.6136 11.726L74.6591 12.6945C74.4944 12.7855 74.3038 12.8657 74.0871 12.935C73.8704 13 73.6321 13.0498 73.3721 13.0845C73.1121 13.1235 72.8369 13.143 72.5466 13.143ZM69.6151 9.9905V9.2235L74.0741 9.1845L74.7306 9.4315V9.9905H69.6151ZM76.4901 13C76.4901 12.519 76.4901 12.0575 76.4901 11.6155C76.4901 11.1735 76.4901 10.686 76.4901 10.153V9.503C76.4901 9.02633 76.4901 8.53883 76.4901 8.0405C76.4901 7.54217 76.4901 7.046 76.4901 6.552L77.4261 6.487L77.4586 7.683H77.5756C77.7142 7.488 77.8919 7.29083 78.1086 7.0915C78.3252 6.89217 78.5809 6.7275 78.8756 6.5975C79.1702 6.46317 79.5082 6.396 79.8896 6.396C80.5742 6.396 81.0747 6.59317 81.3911 6.9875C81.7074 7.38183 81.8656 7.95383 81.8656 8.7035C81.8656 8.98517 81.8656 9.23433 81.8656 9.451C81.8656 9.66767 81.8656 9.90167 81.8656 10.153C81.8656 10.6643 81.8656 11.1475 81.8656 11.6025C81.8656 12.0532 81.8656 12.519 81.8656 13H80.7931C80.7931 12.519 80.7931 12.0553 80.7931 11.609C80.7931 11.1583 80.7931 10.6882 80.7931 10.1985V8.9765C80.7931 8.46083 80.6999 8.07083 80.5136 7.8065C80.3316 7.54217 80.0001 7.41 79.5191 7.41C79.2287 7.41 78.9644 7.4685 78.7261 7.5855C78.4877 7.7025 78.2711 7.86067 78.0761 8.06C77.8854 8.255 77.7142 8.47167 77.5626 8.71V10.1985C77.5626 10.7055 77.5626 11.18 77.5626 11.622C77.5626 12.0597 77.5626 12.519 77.5626 13H76.4901ZM83.9552 13C83.9552 12.519 83.9552 12.0575 83.9552 11.6155C83.9552 11.1735 83.9552 10.686 83.9552 10.153V9.503C83.9552 9.11733 83.9552 8.762 83.9552 8.437C83.9552 8.10767 83.9552 7.79133 83.9552 7.488C83.9552 7.18033 83.9552 6.86833 83.9552 6.552L85.0342 6.513C85.0342 6.83367 85.0342 7.15 85.0342 7.462C85.0342 7.76967 85.0342 8.09033 85.0342 8.424C85.0342 8.75333 85.0342 9.113 85.0342 9.503V10.153C85.0342 10.686 85.0342 11.1735 85.0342 11.6155C85.0342 12.0575 85.0342 12.519 85.0342 13H83.9552ZM84.4752 5.0635C84.2412 5.0635 84.0506 4.9985 83.9032 4.8685C83.7559 4.7385 83.6822 4.53917 83.6822 4.2705C83.6822 4.00617 83.7559 3.809 83.9032 3.679C84.0506 3.54467 84.2456 3.4775 84.4882 3.4775C84.7266 3.4775 84.9172 3.54683 85.0602 3.6855C85.2032 3.81983 85.2747 4.01483 85.2747 4.2705C85.2747 4.53917 85.2032 4.7385 85.0602 4.8685C84.9172 4.9985 84.7222 5.0635 84.4752 5.0635ZM89.1011 13.143C88.8324 13.143 88.5616 13.1213 88.2886 13.078C88.0199 13.0347 87.7664 12.9783 87.5281 12.909C87.2898 12.8353 87.0818 12.753 86.9041 12.662L86.9886 11.6545C87.1879 11.7672 87.4003 11.8668 87.6256 11.9535C87.8553 12.0358 88.0914 12.1008 88.3341 12.1485C88.5811 12.1918 88.8281 12.2135 89.0751 12.2135C89.3134 12.2135 89.5323 12.1875 89.7316 12.1355C89.9353 12.0792 90.0956 11.9795 90.2126 11.8365C90.3339 11.6892 90.3946 11.4768 90.3946 11.1995C90.3946 11.0175 90.3426 10.868 90.2386 10.751C90.1346 10.634 89.9591 10.5278 89.7121 10.4325C89.4694 10.3372 89.1401 10.231 88.7241 10.114C88.3818 10.0187 88.0763 9.90167 87.8076 9.763C87.5389 9.62433 87.3266 9.438 87.1706 9.204C87.0189 8.97 86.9431 8.6645 86.9431 8.2875C86.9431 7.7025 87.1338 7.24317 87.5151 6.9095C87.9008 6.5715 88.4186 6.4025 89.0686 6.4025C89.3373 6.4025 89.5973 6.42633 89.8486 6.474C90.0999 6.51733 90.3318 6.57583 90.5441 6.6495C90.7564 6.72317 90.9406 6.80117 91.0966 6.8835L91.0056 7.891C90.7976 7.761 90.5831 7.65483 90.3621 7.5725C90.1411 7.48583 89.9288 7.42517 89.7251 7.3905C89.5214 7.3515 89.3416 7.332 89.1856 7.332C89.0079 7.332 88.8303 7.358 88.6526 7.41C88.4793 7.45767 88.3341 7.54867 88.2171 7.683C88.1001 7.813 88.0416 8.0015 88.0416 8.2485C88.0416 8.42617 88.0828 8.57567 88.1651 8.697C88.2474 8.81833 88.3904 8.92667 88.5941 9.022C88.7978 9.11733 89.0794 9.217 89.4391 9.321C89.8681 9.44667 90.2343 9.57883 90.5376 9.7175C90.8453 9.85183 91.0814 10.0295 91.2461 10.2505C91.4108 10.4715 91.4931 10.777 91.4931 11.167C91.4931 11.544 91.4108 11.882 91.2461 12.181C91.0814 12.4757 90.8236 12.7097 90.4726 12.883C90.1216 13.0563 89.6644 13.143 89.1011 13.143ZM95.603 13.143C95.174 13.143 94.81 13.0693 94.511 12.922C94.212 12.7703 93.9845 12.5428 93.8285 12.2395C93.6768 11.9318 93.601 11.5397 93.601 11.063C93.601 10.686 93.601 10.3133 93.601 9.945C93.601 9.57233 93.601 9.20833 93.601 8.853C93.601 8.49333 93.601 8.14883 93.601 7.8195C93.601 7.48583 93.601 7.16733 93.601 6.864C93.601 6.422 93.601 6.0125 93.601 5.6355C93.601 5.2585 93.601 4.86633 93.601 4.459L94.6605 4.225C94.6605 4.54567 94.6605 4.8425 94.6605 5.1155C94.6605 5.3885 94.6605 5.66367 94.6605 5.941C94.6605 6.21833 94.6605 6.526 94.6605 6.864V10.8095C94.6605 11.2732 94.758 11.622 94.953 11.856C95.1523 12.09 95.4557 12.207 95.863 12.207C96.0233 12.207 96.1988 12.181 96.3895 12.129C96.5802 12.0727 96.7492 11.986 96.8965 11.869L96.9875 12.8115C96.9008 12.8765 96.7838 12.935 96.6365 12.987C96.4892 13.0347 96.3267 13.0715 96.149 13.0975C95.9713 13.1278 95.7893 13.143 95.603 13.143ZM92.3595 7.4035V6.552H96.9225V7.4035C96.4892 7.4035 96.0515 7.4035 95.6095 7.4035C95.1718 7.4035 94.745 7.4035 94.329 7.4035H93.887H92.3595ZM101.314 13.143C100.543 13.143 99.908 12.9957 99.4097 12.701C98.9113 12.4063 98.5408 12.0033 98.2982 11.492C98.0555 10.9807 97.9342 10.3957 97.9342 9.737C97.9342 9.087 98.0533 8.51067 98.2917 8.008C98.53 7.50533 98.8723 7.11317 99.3187 6.8315C99.765 6.5455 100.298 6.4025 100.918 6.4025C101.464 6.4025 101.932 6.50867 102.322 6.721C102.716 6.93333 103.019 7.24533 103.232 7.657C103.444 8.06433 103.55 8.56917 103.55 9.1715C103.55 9.33183 103.546 9.477 103.537 9.607C103.533 9.73267 103.52 9.8605 103.498 9.9905L102.556 9.516C102.564 9.44667 102.569 9.38167 102.569 9.321C102.573 9.256 102.575 9.19317 102.575 9.1325C102.575 8.5215 102.424 8.05783 102.12 7.7415C101.817 7.42083 101.42 7.2605 100.931 7.2605C100.536 7.2605 100.196 7.36233 99.9102 7.566C99.6285 7.76533 99.4097 8.04267 99.2537 8.398C99.0977 8.75333 99.0197 9.1585 99.0197 9.6135V9.763C99.0197 10.2657 99.1063 10.699 99.2797 11.063C99.453 11.427 99.7152 11.7087 100.066 11.908C100.422 12.103 100.872 12.2005 101.418 12.2005C101.622 12.2005 101.836 12.1853 102.062 12.155C102.291 12.1203 102.517 12.0683 102.738 11.999C102.963 11.9297 103.178 11.8387 103.381 11.726L103.427 12.6945C103.262 12.7855 103.071 12.8657 102.855 12.935C102.638 13 102.4 13.0498 102.14 13.0845C101.88 13.1235 101.605 13.143 101.314 13.143ZM98.3827 9.9905V9.2235L102.842 9.1845L103.498 9.4315V9.9905H98.3827ZM105.258 13C105.258 12.519 105.258 12.0575 105.258 11.6155C105.258 11.1735 105.258 10.686 105.258 10.153V9.503C105.258 9.02633 105.258 8.53883 105.258 8.0405C105.258 7.54217 105.258 7.046 105.258 6.552L106.194 6.487L106.226 7.8H106.337C106.514 7.40567 106.718 7.10883 106.948 6.9095C107.182 6.70583 107.418 6.56933 107.656 6.5C107.894 6.43067 108.113 6.396 108.313 6.396C108.434 6.396 108.555 6.40467 108.677 6.422C108.798 6.43933 108.913 6.4675 109.021 6.5065L108.924 7.5855C108.781 7.5595 108.651 7.53783 108.534 7.5205C108.421 7.50317 108.289 7.4945 108.137 7.4945C108.011 7.4945 107.868 7.514 107.708 7.553C107.552 7.58767 107.39 7.6635 107.221 7.7805C107.056 7.89317 106.896 8.06433 106.74 8.294C106.584 8.51933 106.447 8.8205 106.33 9.1975V10.1985C106.33 10.7055 106.33 11.18 106.33 11.622C106.33 12.0597 106.33 12.519 106.33 13H105.258ZM110.138 12.051V11.0305C110.597 10.8312 111.065 10.6297 111.542 10.426C112.023 10.2223 112.5 10.0208 112.972 9.8215L114.467 9.1845V9.0675L112.972 8.4305C112.495 8.22683 112.019 8.02317 111.542 7.8195C111.065 7.61583 110.597 7.4165 110.138 7.2215V6.1945C110.541 6.3635 110.933 6.53033 111.315 6.695C111.7 6.85533 112.06 7.007 112.394 7.15L113.674 7.6895C114.003 7.82817 114.359 7.97983 114.74 8.1445C115.121 8.30483 115.514 8.4695 115.917 8.6385V9.6135C115.514 9.7825 115.121 9.94717 114.74 10.1075C114.359 10.2678 114.003 10.4173 113.674 10.556L112.394 11.102C112.06 11.245 111.7 11.3967 111.315 11.557C110.933 11.7173 110.541 11.882 110.138 12.051ZM0.2275 26.998V26.166C0.634833 26.166 1.02917 26.166 1.4105 26.166C1.79183 26.166 2.14717 26.166 2.4765 26.166H5.668C6.00167 26.166 6.357 26.166 6.734 26.166C7.11533 26.166 7.50967 26.166 7.917 26.166V26.998C7.50967 26.998 7.11533 26.998 6.734 26.998C6.357 26.998 6.00167 26.998 5.668 26.998H2.4765C2.14717 26.998 1.79183 26.998 1.4105 26.998C1.02917 26.998 0.634833 26.998 0.2275 26.998ZM1.5535 29C1.6445 28.558 1.73117 28.1268 1.8135 27.7065C1.89583 27.2862 1.99333 26.8008 2.106 26.2505L2.6975 23.28C2.7755 22.8987 2.84483 22.5542 2.9055 22.2465C2.9705 21.9345 3.03117 21.6333 3.0875 21.343C3.14817 21.0527 3.20883 20.7515 3.2695 20.4395H4.1405C4.07983 20.7428 4.01917 21.0397 3.9585 21.33C3.90217 21.6203 3.8415 21.9237 3.7765 22.24C3.71583 22.552 3.6465 22.9008 3.5685 23.2865L2.9705 26.2505C2.86217 26.7965 2.76683 27.2797 2.6845 27.7C2.60217 28.116 2.5155 28.5493 2.4245 29H1.5535ZM0.9555 23.3125V22.4805C1.36283 22.4805 1.75717 22.4805 2.1385 22.4805C2.51983 22.4805 2.87517 22.4805 3.2045 22.4805H6.4025C6.73617 22.4805 7.0915 22.4805 7.4685 22.4805C7.84983 22.4805 8.24417 22.4805 8.6515 22.4805V23.3125C8.24417 23.3125 7.84983 23.3125 7.4685 23.3125C7.0915 23.3125 6.73617 23.3125 6.4025 23.3125H3.2045C2.87517 23.3125 2.51983 23.3125 2.1385 23.3125C1.75717 23.3125 1.36283 23.3125 0.9555 23.3125ZM4.654 29C4.745 28.558 4.83167 28.1268 4.914 27.7065C4.99633 27.2862 5.09167 26.8008 5.2 26.2505L5.798 23.2865C5.876 22.9008 5.94533 22.5542 6.006 22.2465C6.06667 21.9345 6.12517 21.6333 6.1815 21.343C6.24217 21.0527 6.305 20.7515 6.37 20.4395H7.2345C7.17383 20.7428 7.11317 21.0397 7.0525 21.33C6.99617 21.6203 6.9355 21.9237 6.8705 22.24C6.80983 22.552 6.74267 22.9008 6.669 23.2865L6.071 26.2505C5.96267 26.7965 5.86733 27.2797 5.785 27.7C5.70267 28.116 5.61383 28.5493 5.5185 29H4.654ZM10.005 29C10.005 28.519 10.005 28.0575 10.005 27.6155C10.005 27.1735 10.005 26.686 10.005 26.153V25.503C10.005 25.1173 10.005 24.762 10.005 24.437C10.005 24.1077 10.005 23.7913 10.005 23.488C10.005 23.1803 10.005 22.8683 10.005 22.552L11.084 22.513C11.084 22.8337 11.084 23.15 11.084 23.462C11.084 23.7697 11.084 24.0903 11.084 24.424C11.084 24.7533 11.084 25.113 11.084 25.503V26.153C11.084 26.686 11.084 27.1735 11.084 27.6155C11.084 28.0575 11.084 28.519 11.084 29H10.005ZM10.525 21.0635C10.291 21.0635 10.1004 20.9985 9.95302 20.8685C9.80569 20.7385 9.73202 20.5392 9.73202 20.2705C9.73202 20.0062 9.80569 19.809 9.95302 19.679C10.1004 19.5447 10.2954 19.4775 10.538 19.4775C10.7764 19.4775 10.967 19.5468 11.11 19.6855C11.253 19.8198 11.3245 20.0148 11.3245 20.2705C11.3245 20.5392 11.253 20.7385 11.11 20.8685C10.967 20.9985 10.772 21.0635 10.525 21.0635ZM13.3309 29C13.3309 28.519 13.3309 28.0575 13.3309 27.6155C13.3309 27.1735 13.3309 26.686 13.3309 26.153V25.503C13.3309 25.0263 13.3309 24.5388 13.3309 24.0405C13.3309 23.5422 13.3309 23.046 13.3309 22.552L14.2669 22.487L14.2994 23.683H14.4164C14.5551 23.488 14.7327 23.2908 14.9494 23.0915C15.1661 22.8922 15.4217 22.7275 15.7164 22.5975C16.0111 22.4632 16.3491 22.396 16.7304 22.396C17.4151 22.396 17.9156 22.5932 18.2319 22.9875C18.5482 23.3818 18.7064 23.9538 18.7064 24.7035C18.7064 24.9852 18.7064 25.2343 18.7064 25.451C18.7064 25.6677 18.7064 25.9017 18.7064 26.153C18.7064 26.6643 18.7064 27.1475 18.7064 27.6025C18.7064 28.0532 18.7064 28.519 18.7064 29H17.6339C17.6339 28.519 17.6339 28.0553 17.6339 27.609C17.6339 27.1583 17.6339 26.6882 17.6339 26.1985V24.9765C17.6339 24.4608 17.5407 24.0708 17.3544 23.8065C17.1724 23.5422 16.8409 23.41 16.3599 23.41C16.0696 23.41 15.8052 23.4685 15.5669 23.5855C15.3286 23.7025 15.1119 23.8607 14.9169 24.06C14.7262 24.255 14.5551 24.4717 14.4034 24.71V26.1985C14.4034 26.7055 14.4034 27.18 14.4034 27.622C14.4034 28.0597 14.4034 28.519 14.4034 29H13.3309ZM23.591 29.13C22.8934 29.13 22.2997 28.9827 21.81 28.688C21.3247 28.3933 20.9542 27.9925 20.6985 27.4855C20.4429 26.9785 20.315 26.4065 20.315 25.7695C20.315 25.1325 20.4364 24.5605 20.679 24.0535C20.926 23.5422 21.2835 23.1392 21.7515 22.8445C22.2239 22.5498 22.798 22.4025 23.474 22.4025C23.7254 22.4025 23.9724 22.4242 24.215 22.4675C24.462 22.5108 24.6939 22.5693 24.9105 22.643C25.1272 22.7123 25.32 22.7947 25.489 22.89L25.3915 23.878C25.1489 23.7393 24.9192 23.6332 24.7025 23.5595C24.4902 23.4815 24.2909 23.4295 24.1045 23.4035C23.9225 23.3732 23.7535 23.358 23.5975 23.358C22.9389 23.358 22.4102 23.5747 22.0115 24.008C21.6129 24.437 21.4135 25.0177 21.4135 25.75C21.4135 26.2093 21.5002 26.6253 21.6735 26.998C21.8512 27.3663 22.1155 27.6588 22.4665 27.8755C22.8219 28.0878 23.2617 28.194 23.786 28.194C23.9724 28.194 24.1565 28.1767 24.3385 28.142C24.5249 28.1073 24.709 28.0575 24.891 27.9925C25.073 27.9232 25.2485 27.8343 25.4175 27.726L25.5085 28.7075C25.3655 28.7855 25.1987 28.857 25.008 28.922C24.8174 28.9827 24.6029 29.0325 24.3645 29.0715C24.1305 29.1105 23.8727 29.13 23.591 29.13ZM27.2069 29C27.2069 28.519 27.2069 28.0575 27.2069 27.6155C27.2069 27.1735 27.2069 26.686 27.2069 26.153V22.5845C27.2069 22.0385 27.2069 21.5077 27.2069 20.992C27.2069 20.4763 27.2069 19.9737 27.2069 19.484L28.2794 19.354C28.2794 19.8783 28.2794 20.4048 28.2794 20.9335C28.2794 21.4578 28.2794 22.0082 28.2794 22.5845V26.153C28.2794 26.686 28.2794 27.1735 28.2794 27.6155C28.2794 28.0575 28.2794 28.519 28.2794 29H27.2069ZM32.3211 29.143C31.6365 29.143 31.136 28.9458 30.8196 28.5515C30.5033 28.1572 30.3451 27.5852 30.3451 26.8355C30.3451 26.5495 30.3451 26.3025 30.3451 26.0945C30.3451 25.8822 30.3451 25.6742 30.3451 25.4705C30.3451 25.0848 30.3451 24.7317 30.3451 24.411C30.3451 24.086 30.3451 23.774 30.3451 23.475C30.3451 23.176 30.3451 22.8683 30.3451 22.552L31.4176 22.5065C31.4176 22.9832 31.4176 23.4512 31.4176 23.9105C31.4176 24.3698 31.4176 24.853 31.4176 25.36V26.582C31.4176 27.0933 31.5108 27.4833 31.6971 27.752C31.8835 28.0163 32.215 28.1485 32.6916 28.1485C32.969 28.1485 33.2225 28.09 33.4521 27.973C33.6818 27.8517 33.892 27.6935 34.0826 27.4985C34.2733 27.3035 34.4466 27.0868 34.6026 26.8485V25.36C34.6026 24.853 34.6026 24.3763 34.6026 23.93C34.6026 23.4837 34.6026 23.0243 34.6026 22.552H35.6751C35.6751 23.0243 35.6751 23.488 35.6751 23.943C35.6751 24.398 35.6751 24.9072 35.6751 25.4705V26.153C35.6751 26.686 35.6751 27.1735 35.6751 27.6155C35.6751 28.0575 35.6751 28.519 35.6751 29H34.7391L34.7001 27.8625H34.5831C34.4488 28.0575 34.2733 28.2547 34.0566 28.454C33.8443 28.649 33.593 28.8137 33.3026 28.948C33.0123 29.078 32.6851 29.143 32.3211 29.143ZM40.0639 29.143C39.4485 29.143 38.9372 28.987 38.5299 28.675C38.1225 28.3587 37.817 27.9448 37.6134 27.4335C37.4097 26.9178 37.3079 26.3588 37.3079 25.7565C37.3079 25.1152 37.4162 24.541 37.6329 24.034C37.8495 23.527 38.1637 23.1283 38.5754 22.838C38.9914 22.5433 39.494 22.396 40.0834 22.396C40.3824 22.396 40.6554 22.4372 40.9024 22.5195C41.1537 22.5975 41.3747 22.7037 41.5654 22.838C41.756 22.968 41.9142 23.1132 42.0399 23.2735H42.1504V22.5845C42.1504 22.0385 42.1504 21.5098 42.1504 20.9985C42.1504 20.4828 42.1504 19.978 42.1504 19.484L43.2229 19.354C43.2229 19.8783 43.2229 20.4048 43.2229 20.9335C43.2229 21.4578 43.2229 22.0082 43.2229 22.5845V26.153C43.2229 26.686 43.2229 27.1735 43.2229 27.6155C43.2229 28.0575 43.2229 28.519 43.2229 29H42.2869L42.2349 28.116H42.1309C41.9619 28.337 41.7734 28.5233 41.5654 28.675C41.3574 28.8267 41.1277 28.9415 40.8764 29.0195C40.6294 29.1018 40.3585 29.143 40.0639 29.143ZM40.3889 28.181C40.6575 28.181 40.9002 28.1398 41.1169 28.0575C41.3335 27.9708 41.5264 27.8495 41.6954 27.6935C41.8687 27.5375 42.0204 27.349 42.1504 27.128V24.2615C42.016 24.0665 41.8557 23.904 41.6694 23.774C41.4874 23.6397 41.288 23.54 41.0714 23.475C40.8547 23.4057 40.6337 23.371 40.4084 23.371C39.9534 23.371 39.5785 23.4793 39.2839 23.696C38.9892 23.9127 38.7682 24.203 38.6209 24.567C38.4779 24.9267 38.4064 25.3253 38.4064 25.763C38.4064 26.1833 38.4757 26.5777 38.6144 26.946C38.753 27.31 38.9675 27.6068 39.2579 27.8365C39.5482 28.0662 39.9252 28.181 40.3889 28.181ZM48.1843 29.143C47.413 29.143 46.7781 28.9957 46.2798 28.701C45.7815 28.4063 45.411 28.0033 45.1683 27.492C44.9256 26.9807 44.8043 26.3957 44.8043 25.737C44.8043 25.087 44.9235 24.5107 45.1618 24.008C45.4001 23.5053 45.7425 23.1132 46.1888 22.8315C46.6351 22.5455 47.1681 22.4025 47.7878 22.4025C48.3338 22.4025 48.8018 22.5087 49.1918 22.721C49.5861 22.9333 49.8895 23.2453 50.1018 23.657C50.3141 24.0643 50.4203 24.5692 50.4203 25.1715C50.4203 25.3318 50.416 25.477 50.4073 25.607C50.403 25.7327 50.39 25.8605 50.3683 25.9905L49.4258 25.516C49.4345 25.4467 49.4388 25.3817 49.4388 25.321C49.4431 25.256 49.4453 25.1932 49.4453 25.1325C49.4453 24.5215 49.2936 24.0578 48.9903 23.7415C48.687 23.4208 48.2905 23.2605 47.8008 23.2605C47.4065 23.2605 47.0663 23.3623 46.7803 23.566C46.4986 23.7653 46.2798 24.0427 46.1238 24.398C45.9678 24.7533 45.8898 25.1585 45.8898 25.6135V25.763C45.8898 26.2657 45.9765 26.699 46.1498 27.063C46.3231 27.427 46.5853 27.7087 46.9363 27.908C47.2916 28.103 47.7423 28.2005 48.2883 28.2005C48.492 28.2005 48.7065 28.1853 48.9318 28.155C49.1615 28.1203 49.3868 28.0683 49.6078 27.999C49.8331 27.9297 50.0476 27.8387 50.2513 27.726L50.2968 28.6945C50.1321 28.7855 49.9415 28.8657 49.7248 28.935C49.5081 29 49.2698 29.0498 49.0098 29.0845C48.7498 29.1235 48.4746 29.143 48.1843 29.143ZM45.2528 25.9905V25.2235L49.7118 25.1845L50.3683 25.4315V25.9905H45.2528ZM60.0825 28.051C59.6795 27.882 59.2852 27.7173 58.8995 27.557C58.5182 27.3967 58.1564 27.245 57.814 27.102L56.54 26.556C56.2107 26.4173 55.8554 26.2678 55.474 26.1075C55.0927 25.9472 54.7027 25.7825 54.304 25.6135V24.6385C54.707 24.4652 55.0992 24.2983 55.4805 24.138C55.8619 23.9777 56.2172 23.8282 56.5465 23.6895L57.8205 23.15C58.1585 23.007 58.5182 22.8553 58.8995 22.695C59.2852 22.5347 59.6795 22.3678 60.0825 22.1945V23.2215C59.6189 23.4165 59.1487 23.6158 58.672 23.8195C58.1997 24.0232 57.7252 24.2247 57.2485 24.424L55.747 25.0675V25.1845L57.2485 25.8215C57.7209 26.0208 58.1954 26.2223 58.672 26.426C59.153 26.6297 59.6232 26.8312 60.0825 27.0305V28.051ZM62.0892 29C62.0892 28.4843 62.0892 27.9882 62.0892 27.5115C62.0892 27.0348 62.0892 26.5105 62.0892 25.9385V22.825C62.0892 22.2487 62.0892 21.7178 62.0892 21.2325C62.0892 20.7472 62.0892 20.2467 62.0892 19.731C62.4402 19.731 62.8931 19.731 63.4477 19.731C64.0067 19.731 64.6459 19.731 65.3652 19.731C66.0716 19.731 66.6544 19.8242 67.1137 20.0105C67.5774 20.1968 67.9241 20.4872 68.1537 20.8815C68.3834 21.2715 68.4982 21.772 68.4982 22.383C68.4982 22.9507 68.3921 23.4555 68.1797 23.8975C67.9717 24.3352 67.6207 24.6797 67.1267 24.931C66.6371 25.1823 65.9676 25.308 65.1182 25.308C64.9016 25.308 64.6697 25.308 64.4227 25.308C64.1757 25.308 63.9352 25.308 63.7012 25.308C63.4672 25.308 63.2636 25.308 63.0902 25.308V24.333H64.8972C65.4519 24.333 65.9047 24.268 66.2557 24.138C66.6111 24.008 66.8732 23.8 67.0422 23.514C67.2112 23.228 67.2957 22.8532 67.2957 22.3895C67.2957 22.0082 67.2329 21.7048 67.1072 21.4795C66.9859 21.2542 66.8234 21.0873 66.6197 20.979C66.4204 20.8663 66.2037 20.7927 65.9697 20.758C65.7357 20.7233 65.5082 20.706 65.2872 20.706H62.6742L63.2462 19.9C63.2462 20.42 63.2462 20.9227 63.2462 21.408C63.2462 21.889 63.2462 22.4177 63.2462 22.994V25.9385C63.2462 26.5105 63.2462 27.0348 63.2462 27.5115C63.2462 27.9882 63.2462 28.4843 63.2462 29H62.0892ZM70.1808 29C70.1808 28.519 70.1808 28.0575 70.1808 27.6155C70.1808 27.1735 70.1808 26.686 70.1808 26.153V25.503C70.1808 25.1173 70.1808 24.762 70.1808 24.437C70.1808 24.1077 70.1808 23.7913 70.1808 23.488C70.1808 23.1803 70.1808 22.8683 70.1808 22.552L71.2598 22.513C71.2598 22.8337 71.2598 23.15 71.2598 23.462C71.2598 23.7697 71.2598 24.0903 71.2598 24.424C71.2598 24.7533 71.2598 25.113 71.2598 25.503V26.153C71.2598 26.686 71.2598 27.1735 71.2598 27.6155C71.2598 28.0575 71.2598 28.519 71.2598 29H70.1808ZM70.7008 21.0635C70.4668 21.0635 70.2761 20.9985 70.1288 20.8685C69.9815 20.7385 69.9078 20.5392 69.9078 20.2705C69.9078 20.0062 69.9815 19.809 70.1288 19.679C70.2761 19.5447 70.4711 19.4775 70.7138 19.4775C70.9521 19.4775 71.1428 19.5468 71.2858 19.6855C71.4288 19.8198 71.5003 20.0148 71.5003 20.2705C71.5003 20.5392 71.4288 20.7385 71.2858 20.8685C71.1428 20.9985 70.9478 21.0635 70.7008 21.0635ZM76.4187 29.143C75.6473 29.143 75.0125 28.9957 74.5142 28.701C74.0158 28.4063 73.6453 28.0033 73.4027 27.492C73.16 26.9807 73.0387 26.3957 73.0387 25.737C73.0387 25.087 73.1578 24.5107 73.3962 24.008C73.6345 23.5053 73.9768 23.1132 74.4232 22.8315C74.8695 22.5455 75.4025 22.4025 76.0222 22.4025C76.5682 22.4025 77.0362 22.5087 77.4262 22.721C77.8205 22.9333 78.1238 23.2453 78.3362 23.657C78.5485 24.0643 78.6547 24.5692 78.6547 25.1715C78.6547 25.3318 78.6503 25.477 78.6417 25.607C78.6373 25.7327 78.6243 25.8605 78.6027 25.9905L77.6602 25.516C77.6688 25.4467 77.6732 25.3817 77.6732 25.321C77.6775 25.256 77.6797 25.1932 77.6797 25.1325C77.6797 24.5215 77.528 24.0578 77.2247 23.7415C76.9213 23.4208 76.5248 23.2605 76.0352 23.2605C75.6408 23.2605 75.3007 23.3623 75.0147 23.566C74.733 23.7653 74.5142 24.0427 74.3582 24.398C74.2022 24.7533 74.1242 25.1585 74.1242 25.6135V25.763C74.1242 26.2657 74.2108 26.699 74.3842 27.063C74.5575 27.427 74.8197 27.7087 75.1707 27.908C75.526 28.103 75.9767 28.2005 76.5227 28.2005C76.7263 28.2005 76.9408 28.1853 77.1662 28.155C77.3958 28.1203 77.6212 28.0683 77.8422 27.999C78.0675 27.9297 78.282 27.8387 78.4857 27.726L78.5312 28.6945C78.3665 28.7855 78.1758 28.8657 77.9592 28.935C77.7425 29 77.5042 29.0498 77.2442 29.0845C76.9842 29.1235 76.709 29.143 76.4187 29.143ZM73.4872 25.9905V25.2235L77.9462 25.1845L78.6027 25.4315V25.9905H73.4872ZM83.1701 29.13C82.4725 29.13 81.8788 28.9827 81.3891 28.688C80.9038 28.3933 80.5333 27.9925 80.2776 27.4855C80.022 26.9785 79.8941 26.4065 79.8941 25.7695C79.8941 25.1325 80.0155 24.5605 80.2581 24.0535C80.5051 23.5422 80.8626 23.1392 81.3306 22.8445C81.803 22.5498 82.3771 22.4025 83.0531 22.4025C83.3045 22.4025 83.5515 22.4242 83.7941 22.4675C84.0411 22.5108 84.273 22.5693 84.4896 22.643C84.7063 22.7123 84.8991 22.7947 85.0681 22.89L84.9706 23.878C84.728 23.7393 84.4983 23.6332 84.2816 23.5595C84.0693 23.4815 83.87 23.4295 83.6836 23.4035C83.5016 23.3732 83.3326 23.358 83.1766 23.358C82.518 23.358 81.9893 23.5747 81.5906 24.008C81.192 24.437 80.9926 25.0177 80.9926 25.75C80.9926 26.2093 81.0793 26.6253 81.2526 26.998C81.4303 27.3663 81.6946 27.6588 82.0456 27.8755C82.401 28.0878 82.8408 28.194 83.3651 28.194C83.5515 28.194 83.7356 28.1767 83.9176 28.142C84.104 28.1073 84.2881 28.0575 84.4701 27.9925C84.6521 27.9232 84.8276 27.8343 84.9966 27.726L85.0876 28.7075C84.9446 28.7855 84.7778 28.857 84.5871 28.922C84.3965 28.9827 84.182 29.0325 83.9436 29.0715C83.7096 29.1105 83.4518 29.13 83.1701 29.13ZM89.698 29.143C88.9266 29.143 88.2918 28.9957 87.7935 28.701C87.2951 28.4063 86.9246 28.0033 86.682 27.492C86.4393 26.9807 86.318 26.3957 86.318 25.737C86.318 25.087 86.4371 24.5107 86.6755 24.008C86.9138 23.5053 87.2561 23.1132 87.7025 22.8315C88.1488 22.5455 88.6818 22.4025 89.3015 22.4025C89.8475 22.4025 90.3155 22.5087 90.7055 22.721C91.0998 22.9333 91.4031 23.2453 91.6155 23.657C91.8278 24.0643 91.934 24.5692 91.934 25.1715C91.934 25.3318 91.9296 25.477 91.921 25.607C91.9166 25.7327 91.9036 25.8605 91.882 25.9905L90.9395 25.516C90.9481 25.4467 90.9525 25.3817 90.9525 25.321C90.9568 25.256 90.959 25.1932 90.959 25.1325C90.959 24.5215 90.8073 24.0578 90.504 23.7415C90.2006 23.4208 89.8041 23.2605 89.3145 23.2605C88.9201 23.2605 88.58 23.3623 88.294 23.566C88.0123 23.7653 87.7935 24.0427 87.6375 24.398C87.4815 24.7533 87.4035 25.1585 87.4035 25.6135V25.763C87.4035 26.2657 87.4901 26.699 87.6635 27.063C87.8368 27.427 88.099 27.7087 88.45 27.908C88.8053 28.103 89.256 28.2005 89.802 28.2005C90.0056 28.2005 90.2201 28.1853 90.4455 28.155C90.6751 28.1203 90.9005 28.0683 91.1215 27.999C91.3468 27.9297 91.5613 27.8387 91.765 27.726L91.8105 28.6945C91.6458 28.7855 91.4551 28.8657 91.2385 28.935C91.0218 29 90.7835 29.0498 90.5235 29.0845C90.2635 29.1235 89.9883 29.143 89.698 29.143ZM86.7665 25.9905V25.2235L91.2255 25.1845L91.882 25.4315V25.9905H86.7665ZM97.8794 29.143C97.0951 29.143 96.4083 29.0173 95.8189 28.766C95.2296 28.5103 94.7378 28.1615 94.3434 27.7195C93.9534 27.2732 93.6609 26.7618 93.4659 26.1855C93.2709 25.6092 93.1734 25.0003 93.1734 24.359C93.1734 23.4577 93.3554 22.6452 93.7194 21.9215C94.0878 21.1978 94.6186 20.6237 95.3119 20.199C96.0053 19.7743 96.8481 19.562 97.8404 19.562C98.5944 19.562 99.2596 19.6855 99.8359 19.9325C100.417 20.1795 100.904 20.5218 101.298 20.9595C101.693 21.3972 101.99 21.9063 102.189 22.487C102.388 23.0677 102.488 23.6895 102.488 24.3525C102.488 25.2668 102.306 26.0858 101.942 26.8095C101.578 27.5288 101.051 28.0987 100.362 28.519C99.6734 28.935 98.8458 29.143 97.8794 29.143ZM97.8469 28.129C98.4406 28.129 98.9519 28.0272 99.3809 27.8235C99.8099 27.6155 100.163 27.3338 100.44 26.9785C100.722 26.6232 100.93 26.2202 101.064 25.7695C101.199 25.3145 101.266 24.8422 101.266 24.3525C101.266 23.8238 101.192 23.332 101.045 22.877C100.902 22.4177 100.685 22.0168 100.395 21.6745C100.109 21.3278 99.7536 21.0592 99.3289 20.8685C98.9043 20.6735 98.4103 20.576 97.8469 20.576C97.2663 20.576 96.7593 20.6778 96.3259 20.8815C95.8969 21.0852 95.5394 21.3647 95.2534 21.72C94.9674 22.071 94.7529 22.474 94.6099 22.929C94.4669 23.3797 94.3954 23.8542 94.3954 24.3525C94.3954 24.8552 94.4648 25.3318 94.6034 25.7825C94.7421 26.2332 94.9523 26.6362 95.2339 26.9915C95.5199 27.3425 95.8796 27.6198 96.3129 27.8235C96.7463 28.0272 97.2576 28.129 97.8469 28.129ZM104.69 29C104.69 28.519 104.69 28.0575 104.69 27.6155C104.69 27.1735 104.69 26.686 104.69 26.153V25.503C104.69 25.2387 104.69 24.9613 104.69 24.671C104.69 24.3763 104.69 24.0708 104.69 23.7545C104.69 23.4382 104.69 23.111 104.69 22.773C104.69 22.4307 104.69 22.0753 104.69 21.707C104.69 21.2477 104.751 20.8642 104.872 20.5565C104.998 20.2488 105.169 20.004 105.385 19.822C105.606 19.64 105.858 19.51 106.139 19.432C106.421 19.3497 106.722 19.3085 107.043 19.3085C107.199 19.3085 107.351 19.3172 107.498 19.3345C107.645 19.3475 107.78 19.367 107.901 19.393C108.027 19.419 108.133 19.4493 108.219 19.484L108.122 20.4135C107.983 20.3615 107.834 20.3225 107.673 20.2965C107.517 20.2662 107.353 20.251 107.179 20.251C106.672 20.251 106.302 20.3745 106.068 20.6215C105.838 20.8642 105.723 21.2347 105.723 21.733C105.723 21.8673 105.723 22.019 105.723 22.188C105.723 22.3527 105.723 22.474 105.723 22.552L105.762 22.7925V26.153C105.762 26.686 105.762 27.1735 105.762 27.6155C105.762 28.0575 105.762 28.519 105.762 29H104.69ZM103.468 23.4035V22.552H107.946V23.4035C107.513 23.4035 107.091 23.4035 106.679 23.4035C106.267 23.4035 105.853 23.4035 105.437 23.4035H104.995H103.468ZM111.86 29C111.86 28.4843 111.86 27.9882 111.86 27.5115C111.86 27.0348 111.86 26.5105 111.86 25.9385V23.0005C111.86 22.4198 111.86 21.889 111.86 21.408C111.86 20.9227 111.86 20.42 111.86 19.9L112.328 20.7775H111.229C110.705 20.7775 110.239 20.7775 109.832 20.7775C109.429 20.7775 109.045 20.7775 108.681 20.7775V19.731H116.208V20.7775C115.844 20.7775 115.461 20.7775 115.058 20.7775C114.655 20.7775 114.189 20.7775 113.66 20.7775H112.562L113.036 19.9C113.036 20.42 113.036 20.9227 113.036 21.408C113.036 21.889 113.036 22.4198 113.036 23.0005V25.9385C113.036 26.5105 113.036 27.0348 113.036 27.5115C113.036 27.9882 113.036 28.4843 113.036 29H111.86ZM118.115 29.13C117.73 29.13 117.392 29.0563 117.101 28.909C116.811 28.7573 116.583 28.5428 116.419 28.2655C116.258 27.9882 116.178 27.6545 116.178 27.2645C116.178 26.9135 116.241 26.6188 116.367 26.3805C116.492 26.1378 116.657 25.9407 116.861 25.789C117.064 25.6373 117.29 25.5203 117.537 25.438C117.784 25.3513 118.031 25.2863 118.278 25.243L120.299 24.892C120.317 24.4543 120.258 24.125 120.124 23.904C119.994 23.6787 119.81 23.527 119.571 23.449C119.333 23.371 119.069 23.332 118.778 23.332C118.631 23.332 118.473 23.3428 118.304 23.3645C118.135 23.3862 117.955 23.4208 117.764 23.4685C117.578 23.5118 117.381 23.5682 117.173 23.6375C116.965 23.7068 116.746 23.7913 116.516 23.891L116.458 22.9095C116.614 22.8445 116.789 22.7817 116.984 22.721C117.184 22.6603 117.394 22.6062 117.615 22.5585C117.84 22.5065 118.07 22.4675 118.304 22.4415C118.538 22.4155 118.774 22.4025 119.012 22.4025C119.493 22.4025 119.907 22.4783 120.254 22.63C120.605 22.7817 120.873 23.02 121.06 23.345C121.246 23.67 121.339 24.0947 121.339 24.619C121.339 24.8183 121.339 25.0718 121.339 25.3795C121.339 25.6872 121.339 25.9797 121.339 26.257V27.0955C121.339 27.3902 121.339 27.6913 121.339 27.999C121.339 28.3023 121.339 28.636 121.339 29H120.364L120.306 28.0835H120.202C120.067 28.2568 119.898 28.4237 119.695 28.584C119.491 28.7443 119.255 28.8765 118.986 28.9805C118.722 29.0802 118.432 29.13 118.115 29.13ZM118.427 28.2395C118.657 28.2395 118.887 28.1918 119.116 28.0965C119.346 28.0012 119.56 27.8603 119.76 27.674C119.963 27.4833 120.135 27.245 120.273 26.959L120.28 25.568C120.21 25.607 120.117 25.646 120 25.685C119.888 25.724 119.716 25.7695 119.487 25.8215C119.261 25.8692 118.947 25.9298 118.544 26.0035C118.297 26.0468 118.078 26.1183 117.888 26.218C117.697 26.3133 117.545 26.4455 117.433 26.6145C117.324 26.7792 117.27 26.9807 117.27 27.219C117.27 27.5917 117.381 27.856 117.602 28.012C117.827 28.1637 118.102 28.2395 118.427 28.2395ZM126.571 29.143C126.272 29.143 125.997 29.1018 125.745 29.0195C125.494 28.9415 125.264 28.8288 125.056 28.6815C124.848 28.5298 124.66 28.3478 124.491 28.1355H124.387L124.296 29H123.412C123.412 28.519 123.412 28.0575 123.412 27.6155C123.412 27.1735 123.412 26.686 123.412 26.153V22.5845C123.412 22.0385 123.412 21.5077 123.412 20.992C123.412 20.4763 123.412 19.9737 123.412 19.484L124.484 19.354C124.484 19.8783 124.484 20.4048 124.484 20.9335C124.484 21.4578 124.484 22.0082 124.484 22.5845V23.2735H124.595C124.716 23.1132 124.872 22.968 125.063 22.838C125.258 22.7037 125.481 22.5975 125.732 22.5195C125.984 22.4372 126.257 22.396 126.551 22.396C127.141 22.396 127.641 22.5433 128.053 22.838C128.469 23.1283 128.785 23.527 129.002 24.034C129.219 24.541 129.327 25.1152 129.327 25.7565C129.327 26.3588 129.225 26.9178 129.021 27.4335C128.822 27.9448 128.517 28.3587 128.105 28.675C127.698 28.987 127.186 29.143 126.571 29.143ZM126.246 28.181C126.71 28.181 127.087 28.0662 127.377 27.8365C127.672 27.6068 127.886 27.31 128.02 26.946C128.159 26.5777 128.228 26.1833 128.228 25.763C128.228 25.3253 128.155 24.9267 128.007 24.567C127.864 24.203 127.646 23.9127 127.351 23.696C127.056 23.4793 126.681 23.371 126.226 23.371C126.001 23.371 125.78 23.4057 125.563 23.475C125.347 23.54 125.145 23.6397 124.959 23.774C124.777 23.904 124.619 24.0665 124.484 24.2615V27.128C124.614 27.349 124.764 27.5375 124.933 27.6935C125.106 27.8495 125.301 27.9708 125.518 28.0575C125.735 28.1398 125.977 28.181 126.246 28.181ZM131.105 29C131.105 28.519 131.105 28.0575 131.105 27.6155C131.105 27.1735 131.105 26.686 131.105 26.153V22.5845C131.105 22.0385 131.105 21.5077 131.105 20.992C131.105 20.4763 131.105 19.9737 131.105 19.484L132.178 19.354C132.178 19.8783 132.178 20.4048 132.178 20.9335C132.178 21.4578 132.178 22.0082 132.178 22.5845V26.153C132.178 26.686 132.178 27.1735 132.178 27.6155C132.178 28.0575 132.178 28.519 132.178 29H131.105ZM137.318 29.143C136.547 29.143 135.912 28.9957 135.414 28.701C134.915 28.4063 134.545 28.0033 134.302 27.492C134.059 26.9807 133.938 26.3957 133.938 25.737C133.938 25.087 134.057 24.5107 134.296 24.008C134.534 23.5053 134.876 23.1132 135.323 22.8315C135.769 22.5455 136.302 22.4025 136.922 22.4025C137.468 22.4025 137.936 22.5087 138.326 22.721C138.72 22.9333 139.023 23.2453 139.236 23.657C139.448 24.0643 139.554 24.5692 139.554 25.1715C139.554 25.3318 139.55 25.477 139.541 25.607C139.537 25.7327 139.524 25.8605 139.502 25.9905L138.56 25.516C138.568 25.4467 138.573 25.3817 138.573 25.321C138.577 25.256 138.579 25.1932 138.579 25.1325C138.579 24.5215 138.427 24.0578 138.124 23.7415C137.821 23.4208 137.424 23.2605 136.935 23.2605C136.54 23.2605 136.2 23.3623 135.914 23.566C135.632 23.7653 135.414 24.0427 135.258 24.398C135.102 24.7533 135.024 25.1585 135.024 25.6135V25.763C135.024 26.2657 135.11 26.699 135.284 27.063C135.457 27.427 135.719 27.7087 136.07 27.908C136.425 28.103 136.876 28.2005 137.422 28.2005C137.626 28.2005 137.84 28.1853 138.066 28.155C138.295 28.1203 138.521 28.0683 138.742 27.999C138.967 27.9297 139.181 27.8387 139.385 27.726L139.431 28.6945C139.266 28.7855 139.075 28.8657 138.859 28.935C138.642 29 138.404 29.0498 138.144 29.0845C137.884 29.1235 137.608 29.143 137.318 29.143ZM134.387 25.9905V25.2235L138.846 25.1845L139.502 25.4315V25.9905H134.387ZM140.95 28.051V27.0305C141.409 26.8312 141.877 26.6297 142.354 26.426C142.835 26.2223 143.311 26.0208 143.784 25.8215L145.279 25.1845V25.0675L143.784 24.4305C143.307 24.2268 142.83 24.0232 142.354 23.8195C141.877 23.6158 141.409 23.4165 140.95 23.2215V22.1945C141.353 22.3635 141.745 22.5303 142.126 22.695C142.512 22.8553 142.871 23.007 143.205 23.15L144.486 23.6895C144.815 23.8282 145.17 23.9798 145.552 24.1445C145.933 24.3048 146.325 24.4695 146.728 24.6385V25.6135C146.325 25.7825 145.933 25.9472 145.552 26.1075C145.17 26.2678 144.815 26.4173 144.486 26.556L143.205 27.102C142.871 27.245 142.512 27.3967 142.126 27.557C141.745 27.7173 141.353 27.882 140.95 28.051ZM0.2275 42.998V42.166C0.634833 42.166 1.02917 42.166 1.4105 42.166C1.79183 42.166 2.14717 42.166 2.4765 42.166H5.668C6.00167 42.166 6.357 42.166 6.734 42.166C7.11533 42.166 7.50967 42.166 7.917 42.166V42.998C7.50967 42.998 7.11533 42.998 6.734 42.998C6.357 42.998 6.00167 42.998 5.668 42.998H2.4765C2.14717 42.998 1.79183 42.998 1.4105 42.998C1.02917 42.998 0.634833 42.998 0.2275 42.998ZM1.5535 45C1.6445 44.558 1.73117 44.1268 1.8135 43.7065C1.89583 43.2862 1.99333 42.8008 2.106 42.2505L2.6975 39.28C2.7755 38.8987 2.84483 38.5542 2.9055 38.2465C2.9705 37.9345 3.03117 37.6333 3.0875 37.343C3.14817 37.0527 3.20883 36.7515 3.2695 36.4395H4.1405C4.07983 36.7428 4.01917 37.0397 3.9585 37.33C3.90217 37.6203 3.8415 37.9237 3.7765 38.24C3.71583 38.552 3.6465 38.9008 3.5685 39.2865L2.9705 42.2505C2.86217 42.7965 2.76683 43.2797 2.6845 43.7C2.60217 44.116 2.5155 44.5493 2.4245 45H1.5535ZM0.9555 39.3125V38.4805C1.36283 38.4805 1.75717 38.4805 2.1385 38.4805C2.51983 38.4805 2.87517 38.4805 3.2045 38.4805H6.4025C6.73617 38.4805 7.0915 38.4805 7.4685 38.4805C7.84983 38.4805 8.24417 38.4805 8.6515 38.4805V39.3125C8.24417 39.3125 7.84983 39.3125 7.4685 39.3125C7.0915 39.3125 6.73617 39.3125 6.4025 39.3125H3.2045C2.87517 39.3125 2.51983 39.3125 2.1385 39.3125C1.75717 39.3125 1.36283 39.3125 0.9555 39.3125ZM4.654 45C4.745 44.558 4.83167 44.1268 4.914 43.7065C4.99633 43.2862 5.09167 42.8008 5.2 42.2505L5.798 39.2865C5.876 38.9008 5.94533 38.5542 6.006 38.2465C6.06667 37.9345 6.12517 37.6333 6.1815 37.343C6.24217 37.0527 6.305 36.7515 6.37 36.4395H7.2345C7.17383 36.7428 7.11317 37.0397 7.0525 37.33C6.99617 37.6203 6.9355 37.9237 6.8705 38.24C6.80983 38.552 6.74267 38.9008 6.669 39.2865L6.071 42.2505C5.96267 42.7965 5.86733 43.2797 5.785 43.7C5.70267 44.116 5.61383 44.5493 5.5185 45H4.654ZM10.005 45C10.005 44.519 10.005 44.0575 10.005 43.6155C10.005 43.1735 10.005 42.686 10.005 42.153V41.503C10.005 41.1173 10.005 40.762 10.005 40.437C10.005 40.1077 10.005 39.7913 10.005 39.488C10.005 39.1803 10.005 38.8683 10.005 38.552L11.084 38.513C11.084 38.8337 11.084 39.15 11.084 39.462C11.084 39.7697 11.084 40.0903 11.084 40.424C11.084 40.7533 11.084 41.113 11.084 41.503V42.153C11.084 42.686 11.084 43.1735 11.084 43.6155C11.084 44.0575 11.084 44.519 11.084 45H10.005ZM10.525 37.0635C10.291 37.0635 10.1004 36.9985 9.95302 36.8685C9.80569 36.7385 9.73202 36.5392 9.73202 36.2705C9.73202 36.0062 9.80569 35.809 9.95302 35.679C10.1004 35.5447 10.2954 35.4775 10.538 35.4775C10.7764 35.4775 10.967 35.5468 11.11 35.6855C11.253 35.8198 11.3245 36.0148 11.3245 36.2705C11.3245 36.5392 11.253 36.7385 11.11 36.8685C10.967 36.9985 10.772 37.0635 10.525 37.0635ZM13.3309 45C13.3309 44.519 13.3309 44.0575 13.3309 43.6155C13.3309 43.1735 13.3309 42.686 13.3309 42.153V41.503C13.3309 41.0263 13.3309 40.5388 13.3309 40.0405C13.3309 39.5422 13.3309 39.046 13.3309 38.552L14.2669 38.487L14.2994 39.683H14.4164C14.5551 39.488 14.7327 39.2908 14.9494 39.0915C15.1661 38.8922 15.4217 38.7275 15.7164 38.5975C16.0111 38.4632 16.3491 38.396 16.7304 38.396C17.4151 38.396 17.9156 38.5932 18.2319 38.9875C18.5482 39.3818 18.7064 39.9538 18.7064 40.7035C18.7064 40.9852 18.7064 41.2343 18.7064 41.451C18.7064 41.6677 18.7064 41.9017 18.7064 42.153C18.7064 42.6643 18.7064 43.1475 18.7064 43.6025C18.7064 44.0532 18.7064 44.519 18.7064 45H17.6339C17.6339 44.519 17.6339 44.0553 17.6339 43.609C17.6339 43.1583 17.6339 42.6882 17.6339 42.1985V40.9765C17.6339 40.4608 17.5407 40.0708 17.3544 39.8065C17.1724 39.5422 16.8409 39.41 16.3599 39.41C16.0696 39.41 15.8052 39.4685 15.5669 39.5855C15.3286 39.7025 15.1119 39.8607 14.9169 40.06C14.7262 40.255 14.5551 40.4717 14.4034 40.71V42.1985C14.4034 42.7055 14.4034 43.18 14.4034 43.622C14.4034 44.0597 14.4034 44.519 14.4034 45H13.3309ZM23.591 45.13C22.8934 45.13 22.2997 44.9827 21.81 44.688C21.3247 44.3933 20.9542 43.9925 20.6985 43.4855C20.4429 42.9785 20.315 42.4065 20.315 41.7695C20.315 41.1325 20.4364 40.5605 20.679 40.0535C20.926 39.5422 21.2835 39.1392 21.7515 38.8445C22.2239 38.5498 22.798 38.4025 23.474 38.4025C23.7254 38.4025 23.9724 38.4242 24.215 38.4675C24.462 38.5108 24.6939 38.5693 24.9105 38.643C25.1272 38.7123 25.32 38.7947 25.489 38.89L25.3915 39.878C25.1489 39.7393 24.9192 39.6332 24.7025 39.5595C24.4902 39.4815 24.2909 39.4295 24.1045 39.4035C23.9225 39.3732 23.7535 39.358 23.5975 39.358C22.9389 39.358 22.4102 39.5747 22.0115 40.008C21.6129 40.437 21.4135 41.0177 21.4135 41.75C21.4135 42.2093 21.5002 42.6253 21.6735 42.998C21.8512 43.3663 22.1155 43.6588 22.4665 43.8755C22.8219 44.0878 23.2617 44.194 23.786 44.194C23.9724 44.194 24.1565 44.1767 24.3385 44.142C24.5249 44.1073 24.709 44.0575 24.891 43.9925C25.073 43.9232 25.2485 43.8343 25.4175 43.726L25.5085 44.7075C25.3655 44.7855 25.1987 44.857 25.008 44.922C24.8174 44.9827 24.6029 45.0325 24.3645 45.0715C24.1305 45.1105 23.8727 45.13 23.591 45.13ZM27.2069 45C27.2069 44.519 27.2069 44.0575 27.2069 43.6155C27.2069 43.1735 27.2069 42.686 27.2069 42.153V38.5845C27.2069 38.0385 27.2069 37.5077 27.2069 36.992C27.2069 36.4763 27.2069 35.9737 27.2069 35.484L28.2794 35.354C28.2794 35.8783 28.2794 36.4048 28.2794 36.9335C28.2794 37.4578 28.2794 38.0082 28.2794 38.5845V42.153C28.2794 42.686 28.2794 43.1735 28.2794 43.6155C28.2794 44.0575 28.2794 44.519 28.2794 45H27.2069ZM32.3211 45.143C31.6365 45.143 31.136 44.9458 30.8196 44.5515C30.5033 44.1572 30.3451 43.5852 30.3451 42.8355C30.3451 42.5495 30.3451 42.3025 30.3451 42.0945C30.3451 41.8822 30.3451 41.6742 30.3451 41.4705C30.3451 41.0848 30.3451 40.7317 30.3451 40.411C30.3451 40.086 30.3451 39.774 30.3451 39.475C30.3451 39.176 30.3451 38.8683 30.3451 38.552L31.4176 38.5065C31.4176 38.9832 31.4176 39.4512 31.4176 39.9105C31.4176 40.3698 31.4176 40.853 31.4176 41.36V42.582C31.4176 43.0933 31.5108 43.4833 31.6971 43.752C31.8835 44.0163 32.215 44.1485 32.6916 44.1485C32.969 44.1485 33.2225 44.09 33.4521 43.973C33.6818 43.8517 33.892 43.6935 34.0826 43.4985C34.2733 43.3035 34.4466 43.0868 34.6026 42.8485V41.36C34.6026 40.853 34.6026 40.3763 34.6026 39.93C34.6026 39.4837 34.6026 39.0243 34.6026 38.552H35.6751C35.6751 39.0243 35.6751 39.488 35.6751 39.943C35.6751 40.398 35.6751 40.9072 35.6751 41.4705V42.153C35.6751 42.686 35.6751 43.1735 35.6751 43.6155C35.6751 44.0575 35.6751 44.519 35.6751 45H34.7391L34.7001 43.8625H34.5831C34.4488 44.0575 34.2733 44.2547 34.0566 44.454C33.8443 44.649 33.593 44.8137 33.3026 44.948C33.0123 45.078 32.6851 45.143 32.3211 45.143ZM40.0639 45.143C39.4485 45.143 38.9372 44.987 38.5299 44.675C38.1225 44.3587 37.817 43.9448 37.6134 43.4335C37.4097 42.9178 37.3079 42.3588 37.3079 41.7565C37.3079 41.1152 37.4162 40.541 37.6329 40.034C37.8495 39.527 38.1637 39.1283 38.5754 38.838C38.9914 38.5433 39.494 38.396 40.0834 38.396C40.3824 38.396 40.6554 38.4372 40.9024 38.5195C41.1537 38.5975 41.3747 38.7037 41.5654 38.838C41.756 38.968 41.9142 39.1132 42.0399 39.2735H42.1504V38.5845C42.1504 38.0385 42.1504 37.5098 42.1504 36.9985C42.1504 36.4828 42.1504 35.978 42.1504 35.484L43.2229 35.354C43.2229 35.8783 43.2229 36.4048 43.2229 36.9335C43.2229 37.4578 43.2229 38.0082 43.2229 38.5845V42.153C43.2229 42.686 43.2229 43.1735 43.2229 43.6155C43.2229 44.0575 43.2229 44.519 43.2229 45H42.2869L42.2349 44.116H42.1309C41.9619 44.337 41.7734 44.5233 41.5654 44.675C41.3574 44.8267 41.1277 44.9415 40.8764 45.0195C40.6294 45.1018 40.3585 45.143 40.0639 45.143ZM40.3889 44.181C40.6575 44.181 40.9002 44.1398 41.1169 44.0575C41.3335 43.9708 41.5264 43.8495 41.6954 43.6935C41.8687 43.5375 42.0204 43.349 42.1504 43.128V40.2615C42.016 40.0665 41.8557 39.904 41.6694 39.774C41.4874 39.6397 41.288 39.54 41.0714 39.475C40.8547 39.4057 40.6337 39.371 40.4084 39.371C39.9534 39.371 39.5785 39.4793 39.2839 39.696C38.9892 39.9127 38.7682 40.203 38.6209 40.567C38.4779 40.9267 38.4064 41.3253 38.4064 41.763C38.4064 42.1833 38.4757 42.5777 38.6144 42.946C38.753 43.31 38.9675 43.6068 39.2579 43.8365C39.5482 44.0662 39.9252 44.181 40.3889 44.181ZM48.1843 45.143C47.413 45.143 46.7781 44.9957 46.2798 44.701C45.7815 44.4063 45.411 44.0033 45.1683 43.492C44.9256 42.9807 44.8043 42.3957 44.8043 41.737C44.8043 41.087 44.9235 40.5107 45.1618 40.008C45.4001 39.5053 45.7425 39.1132 46.1888 38.8315C46.6351 38.5455 47.1681 38.4025 47.7878 38.4025C48.3338 38.4025 48.8018 38.5087 49.1918 38.721C49.5861 38.9333 49.8895 39.2453 50.1018 39.657C50.3141 40.0643 50.4203 40.5692 50.4203 41.1715C50.4203 41.3318 50.416 41.477 50.4073 41.607C50.403 41.7327 50.39 41.8605 50.3683 41.9905L49.4258 41.516C49.4345 41.4467 49.4388 41.3817 49.4388 41.321C49.4431 41.256 49.4453 41.1932 49.4453 41.1325C49.4453 40.5215 49.2936 40.0578 48.9903 39.7415C48.687 39.4208 48.2905 39.2605 47.8008 39.2605C47.4065 39.2605 47.0663 39.3623 46.7803 39.566C46.4986 39.7653 46.2798 40.0427 46.1238 40.398C45.9678 40.7533 45.8898 41.1585 45.8898 41.6135V41.763C45.8898 42.2657 45.9765 42.699 46.1498 43.063C46.3231 43.427 46.5853 43.7087 46.9363 43.908C47.2916 44.103 47.7423 44.2005 48.2883 44.2005C48.492 44.2005 48.7065 44.1853 48.9318 44.155C49.1615 44.1203 49.3868 44.0683 49.6078 43.999C49.8331 43.9297 50.0476 43.8387 50.2513 43.726L50.2968 44.6945C50.1321 44.7855 49.9415 44.8657 49.7248 44.935C49.5081 45 49.2698 45.0498 49.0098 45.0845C48.7498 45.1235 48.4746 45.143 48.1843 45.143ZM45.2528 41.9905V41.2235L49.7118 41.1845L50.3683 41.4315V41.9905H45.2528ZM60.0825 44.051C59.6795 43.882 59.2852 43.7173 58.8995 43.557C58.5182 43.3967 58.1564 43.245 57.814 43.102L56.54 42.556C56.2107 42.4173 55.8554 42.2678 55.474 42.1075C55.0927 41.9472 54.7027 41.7825 54.304 41.6135V40.6385C54.707 40.4652 55.0992 40.2983 55.4805 40.138C55.8619 39.9777 56.2172 39.8282 56.5465 39.6895L57.8205 39.15C58.1585 39.007 58.5182 38.8553 58.8995 38.695C59.2852 38.5347 59.6795 38.3678 60.0825 38.1945V39.2215C59.6189 39.4165 59.1487 39.6158 58.672 39.8195C58.1997 40.0232 57.7252 40.2247 57.2485 40.424L55.747 41.0675V41.1845L57.2485 41.8215C57.7209 42.0208 58.1954 42.2223 58.672 42.426C59.153 42.6297 59.6232 42.8312 60.0825 43.0305V44.051ZM66.2882 45.143C65.5559 45.143 64.8951 45.0238 64.3057 44.7855C63.7207 44.5472 63.2224 44.2135 62.8107 43.7845C62.3991 43.3512 62.0827 42.8442 61.8617 42.2635C61.6451 41.6785 61.5367 41.0415 61.5367 40.3525C61.5367 39.4165 61.7296 38.5888 62.1152 37.8695C62.5009 37.1458 63.0361 36.5803 63.7207 36.173C64.4054 35.7657 65.2027 35.562 66.1127 35.562C66.4204 35.562 66.7194 35.5837 67.0097 35.627C67.3001 35.6703 67.5752 35.7288 67.8352 35.8025C68.0952 35.8762 68.3357 35.9563 68.5567 36.043C68.7777 36.1297 68.9684 36.2185 69.1287 36.3095L69.0247 37.4405C68.6867 37.2412 68.3574 37.0808 68.0367 36.9595C67.7204 36.8338 67.4084 36.7428 67.1007 36.6865C66.7974 36.6302 66.5006 36.602 66.2102 36.602C65.5429 36.602 64.9492 36.7537 64.4292 37.057C63.9092 37.3603 63.4997 37.7937 63.2007 38.357C62.9061 38.916 62.7587 39.5833 62.7587 40.359C62.7587 40.8747 62.8346 41.36 62.9862 41.815C63.1422 42.27 63.3719 42.6708 63.6752 43.0175C63.9829 43.3642 64.3621 43.6372 64.8127 43.8365C65.2677 44.0315 65.7964 44.129 66.3987 44.129C66.6197 44.129 66.8407 44.116 67.0617 44.09C67.2827 44.0597 67.5016 44.0142 67.7182 43.9535C67.9349 43.8928 68.1472 43.8127 68.3552 43.713C68.5676 43.609 68.7756 43.4877 68.9792 43.349L69.0702 44.467C68.8882 44.584 68.6867 44.6858 68.4657 44.7725C68.2491 44.8592 68.0194 44.9307 67.7767 44.987C67.5384 45.039 67.2936 45.078 67.0422 45.104C66.7909 45.13 66.5396 45.143 66.2882 45.143ZM73.1206 44.2265C73.1206 43.8192 73.1206 43.427 73.1206 43.05C73.1206 42.6687 73.1206 42.3112 73.1206 41.9775V40.2485C73.1206 39.9148 73.1206 39.5595 73.1206 39.1825C73.1206 38.8012 73.1206 38.4068 73.1206 37.9995H74.1021C74.1021 38.4068 74.1021 38.8012 74.1021 39.1825C74.1021 39.5595 74.1021 39.9148 74.1021 40.2485V41.9775C74.1021 42.3112 74.1021 42.6687 74.1021 43.05C74.1021 43.427 74.1021 43.8192 74.1021 44.2265H73.1206ZM70.5921 41.594V40.6385C70.9995 40.6385 71.3938 40.6385 71.7751 40.6385C72.1565 40.6385 72.5118 40.6385 72.8411 40.6385H74.3816C74.7153 40.6385 75.0706 40.6385 75.4476 40.6385C75.829 40.6385 76.2233 40.6385 76.6306 40.6385V41.594C76.2233 41.594 75.829 41.594 75.4476 41.594C75.0706 41.594 74.7153 41.594 74.3816 41.594H72.8411C72.5118 41.594 72.1565 41.594 71.7751 41.594C71.3938 41.594 70.9995 41.594 70.5921 41.594ZM80.7632 44.2265C80.7632 43.8192 80.7632 43.427 80.7632 43.05C80.7632 42.6687 80.7632 42.3112 80.7632 41.9775V40.2485C80.7632 39.9148 80.7632 39.5595 80.7632 39.1825C80.7632 38.8012 80.7632 38.4068 80.7632 37.9995H81.7447C81.7447 38.4068 81.7447 38.8012 81.7447 39.1825C81.7447 39.5595 81.7447 39.9148 81.7447 40.2485V41.9775C81.7447 42.3112 81.7447 42.6687 81.7447 43.05C81.7447 43.427 81.7447 43.8192 81.7447 44.2265H80.7632ZM78.2347 41.594V40.6385C78.642 40.6385 79.0364 40.6385 79.4177 40.6385C79.799 40.6385 80.1544 40.6385 80.4837 40.6385H82.0242C82.3579 40.6385 82.7132 40.6385 83.0902 40.6385C83.4715 40.6385 83.8659 40.6385 84.2732 40.6385V41.594C83.8659 41.594 83.4715 41.594 83.0902 41.594C82.7132 41.594 82.3579 41.594 82.0242 41.594H80.4837C80.1544 41.594 79.799 41.594 79.4177 41.594C79.0364 41.594 78.642 41.594 78.2347 41.594ZM85.8773 44.051V43.0305C86.3366 42.8312 86.8046 42.6297 87.2813 42.426C87.7623 42.2223 88.239 42.0208 88.7113 41.8215L90.2063 41.1845V41.0675L88.7113 40.4305C88.2346 40.2268 87.758 40.0232 87.2813 39.8195C86.8046 39.6158 86.3366 39.4165 85.8773 39.2215V38.1945C86.2803 38.3635 86.6725 38.5303 87.0538 38.695C87.4395 38.8553 87.7991 39.007 88.1328 39.15L89.4133 39.6895C89.7426 39.8282 90.098 39.9798 90.4793 40.1445C90.8606 40.3048 91.2528 40.4695 91.6558 40.6385V41.6135C91.2528 41.7825 90.8606 41.9472 90.4793 42.1075C90.098 42.2678 89.7426 42.4173 89.4133 42.556L88.1328 43.102C87.7991 43.245 87.4395 43.3967 87.0538 43.557C86.6725 43.7173 86.2803 43.882 85.8773 44.051Z" fill="white"/>
<path d="M233.4 209.2H415V220.8H233.4V209.2ZM233.4 153.6H415V165.2H233.4V153.6ZM222.2 100V87.2L250.6 100H414.6V111.6H248.2V232C248.2 232.8 247.133 233.867 245 235.2C242.867 236.533 240.067 237.867 236.6 239.2C233.4 240.267 230.067 240.8 226.6 240.8H222.2V100ZM401 100H397.4L411.4 84.4L442.6 108C441.533 109.333 439.533 110.8 436.6 112.4C433.933 114 430.867 115.067 427.4 115.6V229.6C427.4 230.4 426.067 231.467 423.4 232.8C420.733 234.133 417.667 235.333 414.2 236.4C411 237.2 407.933 237.6 405 237.6H401V100ZM149 274.4H447.4L467.4 250C467.4 250 468.6 250.933 471 252.8C473.4 254.667 476.467 257.2 480.2 260.4C484.2 263.333 488.2 266.533 492.2 270C496.467 273.2 500.467 276.4 504.2 279.6C503.667 281.733 502.467 283.333 500.6 284.4C498.733 285.2 496.333 285.6 493.4 285.6H152.2L149 274.4ZM269.8 296.8L304.6 318.8C303.267 320.667 301.533 321.867 299.4 322.4C297.267 322.667 293.933 322.267 289.4 321.2C279.533 329.467 267.133 337.733 252.2 346C237.267 354 220.867 361.333 203 368C185.4 374.667 167.533 380.133 149.4 384.4L145.4 378.8C161.4 372.4 177.4 364.667 193.4 355.6C209.4 346.533 224.067 336.933 237.4 326.8C250.733 316.667 261.533 306.667 269.8 296.8ZM359 305.2C383 308.4 403.267 312.8 419.8 318.4C436.333 323.733 449.667 329.733 459.8 336.4C469.933 342.8 477.267 349.067 481.8 355.2C486.6 361.6 489 367.2 489 372C489.267 376.8 487.533 380.267 483.8 382.4C480.333 384.8 475.667 385.2 469.8 383.6C464.2 377.2 457 370.533 448.2 363.6C439.4 356.667 429.667 349.867 419 343.2C408.333 336.533 397.533 330.4 386.6 324.8C375.667 319.2 365.4 314.4 355.8 310.4L359 305.2ZM194.2 46.4H472.2V58H194.2V46.4ZM190.6 23.6H197.4C201.933 39.3333 203.8 53.2 203 65.2C202.2 77.2 199.8 87.3333 195.8 95.6C191.8 103.867 187.4 110.133 182.6 114.4C179.667 117.067 176.2 119.067 172.2 120.4C168.2 121.733 164.467 122.133 161 121.6C157.533 120.8 154.867 118.8 153 115.6C150.867 111.6 150.733 107.6 152.6 103.6C154.467 99.3333 157.533 95.8667 161.8 93.2C167.133 89.4667 172.067 84.1333 176.6 77.2C181.4 70 185.133 61.8667 187.8 52.8C190.467 43.4667 191.4 33.7333 190.6 23.6ZM459 46.4H454.6L471.8 28.8L502.6 58.8C501 60.1333 498.867 61.0667 496.2 61.6C493.8 62.1333 490.733 62.5333 487 62.8C481.933 69.7333 475.133 77.4667 466.6 86C458.067 94.2666 450.2 101.2 443 106.8L437.8 103.6C440.467 98.5333 443.133 92.5333 445.8 85.6C448.467 78.4 451 71.3333 453.4 64.4C456.067 57.4666 457.933 51.4666 459 46.4ZM309.4 226.8L350.6 231.6C350.067 234.267 348.733 236.533 346.6 238.4C344.467 240.267 340.867 241.6 335.8 242.4V281.6C335.8 281.6 333.8 281.6 329.8 281.6C326.067 281.6 321.667 281.6 316.6 281.6H309.4V226.8Z" fill="#E00000" fill-opacity="0.8"/>
<path d="M20.48 381.648C19.6267 382.331 18.688 382.672 17.664 382.672C16.8107 382.672 16.0427 382.075 15.36 380.88C14.6773 379.685 14.336 378.661 14.336 377.808C14.336 376.955 15.0187 376.016 16.384 374.992L104.192 324.56C106.411 323.024 106.411 321.488 104.192 319.952L16.384 269.264C15.0187 268.581 14.336 267.728 14.336 266.704C14.336 265.68 14.6773 264.571 15.36 263.376C16.0427 262.181 16.8107 261.584 17.664 261.584C18.688 261.584 19.6267 261.925 20.48 262.608L116.736 317.904C118.443 318.928 119.296 320.379 119.296 322.256C119.296 323.963 118.357 325.328 116.48 326.352L20.48 381.648ZM179.974 406.48C177.414 406.48 176.134 405.2 176.134 402.64C176.134 400.08 177.414 398.8 179.974 398.8H256.774C259.334 398.8 260.614 400.08 260.614 402.64C260.614 405.2 259.334 406.48 256.774 406.48H179.974ZM361.224 406.48C358.664 406.48 357.384 405.2 357.384 402.64C357.384 400.08 358.664 398.8 361.224 398.8H438.024C440.584 398.8 441.864 400.08 441.864 402.64C441.864 405.2 440.584 406.48 438.024 406.48H361.224Z" fill="white"/>
</g>
<defs>
<clipPath id="clip0_2_3">
<rect width="512" height="512" fill="white"/>
</clipPath>
</defs>
</svg>
